<svg width="25" height="24" viewBox="0 0 25 24" fill="none" xmlns="http://www.w3.org/2000/svg">
<g filter="url(#filter0_di_1791_1460)">
<path d="M12.6527 1.59424C17.8475 1.59444 22.059 5.80568 22.059 11.0005C22.0587 16.1951 17.8473 20.4065 12.6527 20.4067C7.45794 20.4067 3.24672 16.1952 3.24646 11.0005C3.24646 5.80556 7.45778 1.59424 12.6527 1.59424ZM16.7719 7.75635C16.4514 7.4359 15.9437 7.4162 15.6 7.69678L15.5336 7.75635L11.7777 11.5122L10.6469 10.3813L10.5804 10.3218C10.2368 10.0412 9.72902 10.0609 9.40857 10.3813C9.08818 10.7018 9.06844 11.2096 9.349 11.5532L9.40857 11.6196L11.1586 13.3696L11.223 13.4272C11.3787 13.5547 11.5748 13.6255 11.7777 13.6255C12.0096 13.6254 12.2328 13.5336 12.3969 13.3696L16.7719 8.99463L16.8314 8.92822C17.1119 8.58469 17.0919 8.07682 16.7719 7.75635Z" fill="#434347"/>
</g>
<defs>
<filter id="filter0_di_1791_1460" x="-0.18099" y="-0.666667" width="25.6667" height="25.6667" filterUnits="userSpaceOnUse" color-interpolation-filters="sRGB">
<feFlood flood-opacity="0" result="BackgroundImageFix"/>
<feColorMatrix in="SourceAlpha" type="matrix" values="0 0 0 0 0 0 0 0 0 0 0 0 0 0 0 0 0 0 127 0" result="hardAlpha"/>
<feOffset dy="1.16667"/>
<feGaussianBlur stdDeviation="1.16667"/>
<feComposite in2="hardAlpha" operator="out"/>
<feColorMatrix type="matrix" values="0 0 0 0 0 0 0 0 0 0 0 0 0 0 0 0 0 0 0.5 0"/>
<feBlend mode="normal" in2="BackgroundImageFix" result="effect1_dropShadow_1791_1460"/>
<feBlend mode="normal" in="SourceGraphic" in2="effect1_dropShadow_1791_1460" result="shape"/>
<feColorMatrix in="SourceAlpha" type="matrix" values="0 0 0 0 0 0 0 0 0 0 0 0 0 0 0 0 0 0 127 0" result="hardAlpha"/>
<feOffset dy="-0.583333"/>
<feGaussianBlur stdDeviation="1.16667"/>
<feComposite in2="hardAlpha" operator="arithmetic" k2="-1" k3="1"/>
<feColorMatrix type="matrix" values="0 0 0 0 1 0 0 0 0 1 0 0 0 0 1 0 0 0 0.3 0"/>
<feBlend mode="normal" in2="shape" result="effect2_innerShadow_1791_1460"/>
</filter>
</defs>
</svg>
