<svg width="26" height="23" viewBox="0 0 26 23" fill="none" xmlns="http://www.w3.org/2000/svg">
<g clip-path="url(#clip0_1791_1463)" filter="url(#filter0_di_1791_1463)">
<path d="M12.652 2.46875C16.0295 2.46875 18.8604 4.79043 19.7526 7.94043C21.6368 8.83229 22.9332 10.7871 22.9332 13.042C22.9331 16.1241 20.503 18.6562 17.4645 18.6562H6.87756C4.3705 18.6562 2.37073 16.5678 2.37073 14.0332C2.37078 12.0719 3.56494 10.3828 5.26624 9.71484C5.44495 5.69893 8.66617 2.46895 12.652 2.46875ZM15.8961 9.50586C15.5544 9.16433 14.9995 9.16421 14.6578 9.50586L11.777 12.3867L11.0836 11.6934L11.0172 11.6338C10.6735 11.3534 10.1657 11.373 9.84534 11.6934C9.52512 12.0138 9.50539 12.5216 9.78577 12.8652L9.84534 12.9316L11.1578 14.2441L11.2223 14.3018C11.3779 14.4293 11.574 14.4999 11.777 14.5C12.009 14.5 12.232 14.4081 12.3961 14.2441L15.8961 10.7441C16.2378 10.4024 16.2378 9.84757 15.8961 9.50586Z" fill="#434347"/>
</g>
<defs>
<filter id="filter0_di_1791_1463" x="-0.18099" y="-0.666667" width="25.6667" height="25.6667" filterUnits="userSpaceOnUse" color-interpolation-filters="sRGB">
<feFlood flood-opacity="0" result="BackgroundImageFix"/>
<feColorMatrix in="SourceAlpha" type="matrix" values="0 0 0 0 0 0 0 0 0 0 0 0 0 0 0 0 0 0 127 0" result="hardAlpha"/>
<feOffset dy="1.16667"/>
<feGaussianBlur stdDeviation="1.16667"/>
<feComposite in2="hardAlpha" operator="out"/>
<feColorMatrix type="matrix" values="0 0 0 0 0 0 0 0 0 0 0 0 0 0 0 0 0 0 0.5 0"/>
<feBlend mode="normal" in2="BackgroundImageFix" result="effect1_dropShadow_1791_1463"/>
<feBlend mode="normal" in="SourceGraphic" in2="effect1_dropShadow_1791_1463" result="shape"/>
<feColorMatrix in="SourceAlpha" type="matrix" values="0 0 0 0 0 0 0 0 0 0 0 0 0 0 0 0 0 0 127 0" result="hardAlpha"/>
<feOffset dy="-0.583333"/>
<feGaussianBlur stdDeviation="1.16667"/>
<feComposite in2="hardAlpha" operator="arithmetic" k2="-1" k3="1"/>
<feColorMatrix type="matrix" values="0 0 0 0 1 0 0 0 0 1 0 0 0 0 1 0 0 0 0.3 0"/>
<feBlend mode="normal" in2="shape" result="effect2_innerShadow_1791_1463"/>
</filter>
<clipPath id="clip0_1791_1463">
<rect width="21" height="21" fill="white" transform="translate(2.15234 0.5)"/>
</clipPath>
</defs>
</svg>
