<svg width="190" height="45" viewBox="0 0 190 45" fill="none" xmlns="http://www.w3.org/2000/svg">
<path fill-rule="evenodd" clip-rule="evenodd" d="M0.1875 22.5C13.2971 22.5 20.8125 14.9846 20.8125 1.875C20.8125 14.9846 28.3279 22.5 41.4375 22.5C28.3279 22.5 20.8125 30.0154 20.8125 43.125C20.8125 30.0154 13.2971 22.5 0.1875 22.5Z" fill="#C0C7FD"/>
<path d="M49.5844 31.7896L56.7844 12.1021H60.8344L68.0344 31.7896H64.2094L62.6344 27.2334H54.9562L53.3531 31.7896H49.5844ZM55.9406 24.4209H61.65L58.7812 16.2365L55.9406 24.4209Z" fill="#AEA5BA"/>
<path d="M75.255 32.1271C73.83 32.1271 72.5738 31.8178 71.4863 31.199C70.3988 30.5803 69.5363 29.7178 68.8988 28.6115C68.28 27.5053 67.9706 26.2396 67.9706 24.8146C67.9706 23.3896 68.28 22.124 68.8988 21.0178C69.5363 19.9115 70.3988 19.049 71.4863 18.4303C72.5738 17.8115 73.83 17.5021 75.255 17.5021C77.0363 17.5021 78.5363 17.9709 79.755 18.9084C80.9738 19.8271 81.7519 21.1021 82.0894 22.7334H78.2925C78.105 22.0584 77.73 21.5334 77.1675 21.1584C76.6238 20.7646 75.9769 20.5678 75.2269 20.5678C74.2331 20.5678 73.3894 20.9428 72.6956 21.6928C72.0019 22.4428 71.655 23.4834 71.655 24.8146C71.655 26.1459 72.0019 27.1865 72.6956 27.9365C73.3894 28.6865 74.2331 29.0615 75.2269 29.0615C75.9769 29.0615 76.6238 28.874 77.1675 28.499C77.73 28.124 78.105 27.5896 78.2925 26.8959H82.0894C81.7519 28.4709 80.9738 29.7365 79.755 30.6928C78.5363 31.649 77.0363 32.1271 75.255 32.1271Z" fill="#AEA5BA"/>
<path d="M83.8784 31.7896V17.8396H87.0565L87.3659 19.724C87.8159 19.049 88.4065 18.5146 89.1378 18.1209C89.8878 17.7084 90.7503 17.5021 91.7253 17.5021C93.8815 17.5021 95.4096 18.3365 96.3096 20.0053C96.8159 19.2365 97.4909 18.6271 98.3347 18.1771C99.1972 17.7271 100.135 17.5021 101.147 17.5021C102.966 17.5021 104.363 18.0459 105.338 19.1334C106.313 20.2209 106.8 21.8146 106.8 23.9146V31.7896H103.2V24.2521C103.2 23.0521 102.966 22.1334 102.497 21.4959C102.047 20.8584 101.344 20.5396 100.388 20.5396C99.4128 20.5396 98.6253 20.8959 98.0253 21.6084C97.444 22.3209 97.1534 23.3146 97.1534 24.5896V31.7896H93.5534V24.2521C93.5534 23.0521 93.319 22.1334 92.8503 21.4959C92.3815 20.8584 91.6596 20.5396 90.6846 20.5396C89.7284 20.5396 88.9503 20.8959 88.3503 21.6084C87.769 22.3209 87.4784 23.3146 87.4784 24.5896V31.7896H83.8784Z" fill="#AEA5BA"/>
<path d="M115.59 32.1271C114.184 32.1271 112.937 31.8271 111.849 31.2271C110.762 30.6271 109.909 29.7834 109.29 28.6959C108.671 27.6084 108.362 26.3521 108.362 24.9271C108.362 23.4834 108.662 22.199 109.262 21.074C109.881 19.949 110.724 19.0771 111.793 18.4584C112.881 17.8209 114.156 17.5021 115.618 17.5021C116.987 17.5021 118.196 17.8021 119.246 18.4021C120.296 19.0021 121.112 19.8271 121.693 20.8771C122.293 21.9084 122.593 23.0615 122.593 24.3365C122.593 24.5428 122.584 24.7584 122.565 24.9834C122.565 25.2084 122.556 25.4428 122.537 25.6865H111.934C112.009 26.774 112.384 27.6271 113.059 28.2459C113.752 28.8646 114.587 29.174 115.562 29.174C116.293 29.174 116.902 29.0146 117.39 28.6959C117.896 28.3584 118.271 27.9271 118.515 27.4021H122.171C121.909 28.2834 121.468 29.0896 120.849 29.8209C120.249 30.5334 119.499 31.0959 118.599 31.5084C117.718 31.9209 116.715 32.1271 115.59 32.1271ZM115.618 20.4271C114.737 20.4271 113.959 20.6803 113.284 21.1865C112.609 21.674 112.177 22.424 111.99 23.4365H118.937C118.881 22.5178 118.543 21.7865 117.924 21.2428C117.306 20.699 116.537 20.4271 115.618 20.4271Z" fill="#AEA5BA"/>
<path d="M138.51 32.1271C136.523 32.1271 134.816 31.7053 133.391 30.8615C131.966 29.999 130.869 28.8084 130.101 27.2896C129.332 25.7521 128.948 23.9803 128.948 21.974C128.948 19.9678 129.332 18.1959 130.101 16.6584C130.869 15.1209 131.966 13.9209 133.391 13.0584C134.816 12.1959 136.523 11.7646 138.51 11.7646C140.873 11.7646 142.804 12.3553 144.304 13.5365C145.823 14.699 146.769 16.3396 147.144 18.4584H143.179C142.935 17.3896 142.41 16.5553 141.604 15.9553C140.816 15.3365 139.766 15.0271 138.454 15.0271C136.635 15.0271 135.21 15.6459 134.179 16.8834C133.148 18.1209 132.632 19.8178 132.632 21.974C132.632 24.1303 133.148 25.8271 134.179 27.0646C135.21 28.2834 136.635 28.8928 138.454 28.8928C139.766 28.8928 140.816 28.6115 141.604 28.049C142.41 27.4678 142.935 26.6709 143.179 25.6584H147.144C146.769 27.6834 145.823 29.2678 144.304 30.4115C142.804 31.5553 140.873 32.1271 138.51 32.1271Z" fill="#AEA5BA"/>
<path d="M155.534 32.1271C154.184 32.1271 152.966 31.8178 151.878 31.199C150.809 30.5803 149.956 29.7271 149.319 28.6396C148.7 27.5334 148.391 26.2584 148.391 24.8146C148.391 23.3709 148.709 22.1053 149.347 21.0178C149.984 19.9115 150.837 19.049 151.906 18.4303C152.994 17.8115 154.212 17.5021 155.562 17.5021C156.894 17.5021 158.094 17.8115 159.162 18.4303C160.25 19.049 161.103 19.9115 161.722 21.0178C162.359 22.1053 162.678 23.3709 162.678 24.8146C162.678 26.2584 162.359 27.5334 161.722 28.6396C161.103 29.7271 160.25 30.5803 159.162 31.199C158.075 31.8178 156.866 32.1271 155.534 32.1271ZM155.534 29.0053C156.472 29.0053 157.287 28.6584 157.981 27.9646C158.675 27.2521 159.022 26.2021 159.022 24.8146C159.022 23.4271 158.675 22.3865 157.981 21.6928C157.287 20.9803 156.481 20.624 155.562 20.624C154.606 20.624 153.781 20.9803 153.087 21.6928C152.412 22.3865 152.075 23.4271 152.075 24.8146C152.075 26.2021 152.412 27.2521 153.087 27.9646C153.781 28.6584 154.597 29.0053 155.534 29.0053Z" fill="#AEA5BA"/>
<path d="M164.491 31.7896V17.8396H167.697L168.034 20.4553C168.541 19.5553 169.225 18.8428 170.087 18.3178C170.969 17.774 172 17.5021 173.181 17.5021V21.299H172.169C171.381 21.299 170.678 21.4209 170.059 21.6646C169.441 21.9084 168.953 22.3303 168.597 22.9303C168.259 23.5303 168.091 24.3646 168.091 25.4334V31.7896H164.491Z" fill="#AEA5BA"/>
<path d="M174.235 37.9771V17.8396H177.442L177.835 19.8365C178.285 19.2178 178.876 18.674 179.607 18.2053C180.357 17.7365 181.323 17.5021 182.504 17.5021C183.817 17.5021 184.989 17.8209 186.02 18.4584C187.051 19.0959 187.867 19.9678 188.467 21.074C189.067 22.1803 189.367 23.4365 189.367 24.8428C189.367 26.249 189.067 27.5053 188.467 28.6115C187.867 29.699 187.051 30.5615 186.02 31.199C184.989 31.8178 183.817 32.1271 182.504 32.1271C181.454 32.1271 180.535 31.9303 179.748 31.5365C178.96 31.1428 178.323 30.5896 177.835 29.8771V37.9771H174.235ZM181.745 28.9771C182.889 28.9771 183.835 28.5928 184.585 27.824C185.335 27.0553 185.71 26.0615 185.71 24.8428C185.71 23.624 185.335 22.6209 184.585 21.8334C183.835 21.0459 182.889 20.6521 181.745 20.6521C180.582 20.6521 179.626 21.0459 178.876 21.8334C178.145 22.6021 177.779 23.5959 177.779 24.8146C177.779 26.0334 178.145 27.0365 178.876 27.824C179.626 28.5928 180.582 28.9771 181.745 28.9771Z" fill="#AEA5BA"/>
</svg>
