<svg width="160" height="45" viewBox="0 0 160 45" fill="none" xmlns="http://www.w3.org/2000/svg">
<path fill-rule="evenodd" clip-rule="evenodd" d="M20.625 43.125C32.0159 43.125 41.25 33.8909 41.25 22.5C41.25 11.1091 32.0159 1.875 20.625 1.875C9.2341 1.875 0 11.1091 0 22.5C0 33.8909 9.2341 43.125 20.625 43.125ZM27.0593 11.483C27.3725 10.3705 26.2929 9.71264 25.3069 10.4151L11.5429 20.2205C10.4736 20.9823 10.6418 22.5 11.7956 22.5H15.42V22.4719H22.4838L16.7281 24.5028L14.1907 33.517C13.8775 34.6296 14.9571 35.2874 15.9431 34.5849L29.7071 24.7796C30.7764 24.0178 30.6081 22.5 29.4545 22.5H23.9581L27.0593 11.483Z" fill="#C0C7FD"/>
<path d="M51.9188 31.79V28.5275H54.5063V15.365H51.9188V12.1025H62.0438C63.2438 12.1025 64.2844 12.3087 65.1656 12.7212C66.0656 13.115 66.7594 13.6869 67.2469 14.4369C67.7531 15.1681 68.0063 16.0494 68.0063 17.0806V17.3619C68.0063 18.2619 67.8375 19.0025 67.5 19.5837C67.1625 20.1462 66.7594 20.5869 66.2906 20.9056C65.8406 21.2056 65.4094 21.4212 64.9969 21.5525V22.0587C65.4094 22.1712 65.8594 22.3869 66.3469 22.7056C66.8344 23.0056 67.2469 23.4462 67.5844 24.0275C67.9406 24.6087 68.1188 25.3681 68.1188 26.3056V26.5869C68.1188 27.6744 67.8656 28.6119 67.3594 29.3994C66.8531 30.1681 66.15 30.7587 65.25 31.1712C64.3688 31.5837 63.3375 31.79 62.1563 31.79H51.9188ZM58.2188 28.415H61.7063C62.5125 28.415 63.1594 28.2181 63.6469 27.8244C64.1531 27.4306 64.4063 26.8681 64.4063 26.1369V25.8556C64.4063 25.1244 64.1625 24.5619 63.675 24.1681C63.1875 23.7744 62.5313 23.5775 61.7063 23.5775H58.2188V28.415ZM58.2188 20.2025H61.65C62.4188 20.2025 63.0469 20.0056 63.5344 19.6119C64.0406 19.2181 64.2938 18.6744 64.2938 17.9806V17.6994C64.2938 16.9869 64.05 16.4431 63.5625 16.0681C63.075 15.6744 62.4375 15.4775 61.65 15.4775H58.2188V20.2025Z" fill="#AEA5BA"/>
<path d="M76.5018 32.1837C75.1143 32.1837 73.8674 31.9025 72.7611 31.34C71.6549 30.7775 70.783 29.9619 70.1455 28.8931C69.508 27.8244 69.1893 26.54 69.1893 25.04V24.59C69.1893 23.09 69.508 21.8056 70.1455 20.7369C70.783 19.6681 71.6549 18.8525 72.7611 18.29C73.8674 17.7275 75.1143 17.4462 76.5018 17.4462C77.8893 17.4462 79.1361 17.7275 80.2424 18.29C81.3486 18.8525 82.2205 19.6681 82.858 20.7369C83.4955 21.8056 83.8143 23.09 83.8143 24.59V25.04C83.8143 26.54 83.4955 27.8244 82.858 28.8931C82.2205 29.9619 81.3486 30.7775 80.2424 31.34C79.1361 31.9025 77.8893 32.1837 76.5018 32.1837ZM76.5018 29.0337C77.5893 29.0337 78.4893 28.6869 79.2018 27.9931C79.9143 27.2806 80.2705 26.2681 80.2705 24.9556V24.6744C80.2705 23.3619 79.9143 22.3587 79.2018 21.665C78.508 20.9525 77.608 20.5962 76.5018 20.5962C75.4143 20.5962 74.5143 20.9525 73.8018 21.665C73.0893 22.3587 72.733 23.3619 72.733 24.6744V24.9556C72.733 26.2681 73.0893 27.2806 73.8018 27.9931C74.5143 28.6869 75.4143 29.0337 76.5018 29.0337Z" fill="#AEA5BA"/>
<path d="M85.6791 31.79V12.1025H89.2228V31.79H85.6791Z" fill="#AEA5BA"/>
<path d="M97.0873 31.79C96.1685 31.79 95.4185 31.5087 94.8373 30.9462C94.2748 30.365 93.9935 29.5962 93.9935 28.64V20.765H90.506V17.84H93.9935V13.5087H97.5373V17.84H101.362V20.765H97.5373V28.0212C97.5373 28.5837 97.7998 28.865 98.3248 28.865H101.025V31.79H97.0873Z" fill="#AEA5BA"/>
<path d="M108.958 32.1837C107.139 32.1837 105.648 31.79 104.486 31.0025C103.323 30.215 102.62 29.09 102.376 27.6275L105.639 26.7837C105.77 27.44 105.986 27.9556 106.286 28.3306C106.604 28.7056 106.989 28.9775 107.439 29.1462C107.908 29.2962 108.414 29.3712 108.958 29.3712C109.783 29.3712 110.392 29.2306 110.786 28.9494C111.179 28.6494 111.376 28.2837 111.376 27.8525C111.376 27.4212 111.189 27.0931 110.814 26.8681C110.439 26.6244 109.839 26.4275 109.014 26.2775L108.226 26.1369C107.251 25.9494 106.361 25.6962 105.554 25.3775C104.748 25.04 104.101 24.5806 103.614 23.9994C103.126 23.4181 102.883 22.6681 102.883 21.7494C102.883 20.3619 103.389 19.3025 104.401 18.5712C105.414 17.8212 106.745 17.4462 108.395 17.4462C109.951 17.4462 111.245 17.7931 112.276 18.4869C113.308 19.1806 113.983 20.09 114.301 21.215L111.011 22.2275C110.861 21.515 110.551 21.0087 110.083 20.7087C109.633 20.4087 109.07 20.2587 108.395 20.2587C107.72 20.2587 107.204 20.3806 106.848 20.6244C106.492 20.8494 106.314 21.1681 106.314 21.5806C106.314 22.0306 106.501 22.3681 106.876 22.5931C107.251 22.7994 107.758 22.9587 108.395 23.0712L109.183 23.2119C110.233 23.3994 111.179 23.6525 112.023 23.9712C112.886 24.2712 113.561 24.7119 114.048 25.2931C114.554 25.8556 114.808 26.6244 114.808 27.5994C114.808 29.0619 114.273 30.1962 113.204 31.0025C112.154 31.79 110.739 32.1837 108.958 32.1837Z" fill="#AEA5BA"/>
<path d="M116.507 31.79V12.1025H120.05V19.5556H120.557C120.707 19.2556 120.941 18.9556 121.26 18.6556C121.579 18.3556 122 18.1119 122.525 17.9244C123.069 17.7181 123.754 17.615 124.579 17.615C125.666 17.615 126.613 17.8681 127.419 18.3744C128.244 18.8619 128.882 19.5462 129.332 20.4275C129.782 21.29 130.007 22.3025 130.007 23.465V31.79H126.463V23.7462C126.463 22.6962 126.2 21.9087 125.675 21.3837C125.169 20.8587 124.438 20.5962 123.482 20.5962C122.394 20.5962 121.55 20.9619 120.95 21.6931C120.35 22.4056 120.05 23.4087 120.05 24.7025V31.79H116.507Z" fill="#AEA5BA"/>
<path d="M132.431 31.79V17.84H135.975V31.79H132.431ZM134.203 16.2087C133.566 16.2087 133.022 16.0025 132.572 15.59C132.141 15.1775 131.925 14.6337 131.925 13.9587C131.925 13.2837 132.141 12.74 132.572 12.3275C133.022 11.915 133.566 11.7087 134.203 11.7087C134.86 11.7087 135.403 11.915 135.835 12.3275C136.266 12.74 136.481 13.2837 136.481 13.9587C136.481 14.6337 136.266 15.1775 135.835 15.59C135.403 16.0025 134.86 16.2087 134.203 16.2087Z" fill="#AEA5BA"/>
<path d="M140.802 31.79V20.765H137.258V17.84H140.802V15.2525C140.802 14.2962 141.083 13.5369 141.646 12.9744C142.227 12.3931 142.977 12.1025 143.896 12.1025H147.552V15.0275H145.133C144.608 15.0275 144.346 15.3087 144.346 15.8712V17.84H148.002V20.765H144.346V31.79H140.802Z" fill="#AEA5BA"/>
<path d="M154.408 31.79C153.49 31.79 152.74 31.5087 152.158 30.9462C151.596 30.365 151.315 29.5962 151.315 28.64V20.765H147.827V17.84H151.315V13.5087H154.858V17.84H158.683V20.765H154.858V28.0212C154.858 28.5837 155.121 28.865 155.646 28.865H158.346V31.79H154.408Z" fill="#AEA5BA"/>
</svg>
