<svg width="191" height="45" viewBox="0 0 191 45" fill="none" xmlns="http://www.w3.org/2000/svg">
<path d="M23.274 24.375C22.7976 18.6004 17.96 14.0625 12.0625 14.0625C5.8493 14.0625 0.8125 19.0993 0.8125 25.3125C0.8125 31.5257 5.8493 36.5625 12.0625 36.5625H28.9375V24.375H23.274Z" fill="#C0C7FD"/>
<circle cx="28" cy="22.5" r="14.0625" fill="#C0C7FD"/>
<path d="M50.4025 22.6875C50.4025 20.815 50.7612 19.1788 51.4787 17.7788C52.2137 16.3613 53.255 15.2675 54.6025 14.4975C55.9675 13.7275 57.5687 13.3425 59.4062 13.3425C60.8412 13.3425 62.1275 13.6225 63.265 14.1825C64.4025 14.7425 65.3212 15.53 66.0212 16.545C66.7212 17.56 67.1412 18.7325 67.2812 20.0625H63.3437C63.1162 19.0125 62.635 18.19 61.9 17.595C61.1825 16.9825 60.2812 16.6763 59.1962 16.6763C57.7262 16.6763 56.5625 17.2275 55.705 18.33C54.8475 19.4325 54.4187 20.885 54.4187 22.6875C54.4187 24.4725 54.8475 25.925 55.705 27.045C56.5625 28.1475 57.7262 28.6988 59.1962 28.6988C60.2812 28.6988 61.1825 28.4013 61.9 27.8063C62.635 27.1938 63.1162 26.3625 63.3437 25.3125H67.2812C67.1412 26.6425 66.7212 27.815 66.0212 28.83C65.3212 29.845 64.4025 30.6325 63.265 31.1925C62.1275 31.7525 60.8412 32.0325 59.4062 32.0325C57.5687 32.0325 55.9675 31.6475 54.6025 30.8775C53.255 30.1075 52.2137 29.0225 51.4787 27.6225C50.7612 26.205 50.4025 24.56 50.4025 22.6875Z" fill="#AEA5BA"/>
<path d="M68.2301 13.5H71.9314V31.875H68.2301V13.5Z" fill="#AEA5BA"/>
<path d="M80.0494 32.0325C78.6319 32.0325 77.3806 31.7525 76.2956 31.1925C75.2281 30.615 74.3969 29.8013 73.8019 28.7513C73.2244 27.7013 72.9356 26.4938 72.9356 25.1288C72.9356 23.7638 73.2244 22.5563 73.8019 21.5063C74.3969 20.4563 75.2281 19.6513 76.2956 19.0913C77.3806 18.5138 78.6319 18.225 80.0494 18.225C81.4669 18.225 82.7094 18.5138 83.7769 19.0913C84.8619 19.6513 85.6931 20.4563 86.2706 21.5063C86.8656 22.5563 87.1631 23.7638 87.1631 25.1288C87.1631 26.5113 86.8656 27.7275 86.2706 28.7775C85.6931 29.81 84.8619 30.615 83.7769 31.1925C82.7094 31.7525 81.4669 32.0325 80.0494 32.0325ZM80.0494 29.0138C81.0819 29.0138 81.8956 28.655 82.4906 27.9375C83.1031 27.22 83.4094 26.2838 83.4094 25.1288C83.4094 23.9738 83.1031 23.0375 82.4906 22.32C81.8956 21.6025 81.0819 21.2438 80.0494 21.2438C79.0344 21.2438 78.2206 21.6025 77.6081 22.32C77.0131 23.0375 76.7156 23.9738 76.7156 25.1288C76.7156 26.2838 77.0131 27.22 77.6081 27.9375C78.2206 28.655 79.0344 29.0138 80.0494 29.0138Z" fill="#AEA5BA"/>
<path d="M100.855 18.3825V31.875H97.5741L97.2329 30.2475C96.7604 30.8075 96.2091 31.245 95.5791 31.56C94.9491 31.875 94.1791 32.0325 93.2691 32.0325C91.6941 32.0325 90.4079 31.5513 89.4104 30.5888C88.4129 29.6088 87.9141 27.9813 87.9141 25.7063V18.3825H91.6154V25.26C91.6154 26.485 91.8254 27.4125 92.2454 28.0425C92.6829 28.655 93.3479 28.9613 94.2404 28.9613C95.1679 28.9613 95.8854 28.62 96.3929 27.9375C96.9004 27.2375 97.1541 26.2663 97.1541 25.0238V18.3825H100.855Z" fill="#AEA5BA"/>
<path d="M115.871 13.5V31.875H112.642L112.275 30.0113C111.242 31.3588 109.842 32.0325 108.075 32.0325C106.885 32.0325 105.817 31.7525 104.872 31.1925C103.927 30.615 103.184 29.8013 102.641 28.7513C102.116 27.7013 101.854 26.485 101.854 25.1025C101.854 23.7375 102.116 22.5388 102.641 21.5063C103.184 20.4563 103.927 19.6513 104.872 19.0913C105.835 18.5138 106.911 18.225 108.101 18.225C109.851 18.225 111.207 18.8375 112.17 20.0625V13.5H115.871ZM108.941 29.0138C109.939 29.0138 110.735 28.6638 111.33 27.9638C111.925 27.2463 112.222 26.31 112.222 25.155C112.222 23.9825 111.925 23.0375 111.33 22.32C110.735 21.6025 109.939 21.2438 108.941 21.2438C107.944 21.2438 107.139 21.6025 106.526 22.32C105.931 23.0375 105.634 23.9738 105.634 25.1288C105.634 26.2838 105.931 27.22 106.526 27.9375C107.139 28.655 107.944 29.0138 108.941 29.0138Z" fill="#AEA5BA"/>
<path d="M116.352 13.5L120.42 13.4738L123.807 26.9138L127.403 13.5H130.947L134.438 26.9138L137.903 13.5H141.893L136.8 31.875H132.259L129.083 19.6688L125.985 31.875H121.444L116.352 13.5Z" fill="#AEA5BA"/>
<path d="M154.244 28.7513V31.875H152.354C150.656 31.875 149.825 31.14 149.86 29.67C149.37 30.44 148.766 31.0263 148.049 31.4288C147.331 31.8313 146.465 32.0325 145.45 32.0325C143.945 32.0325 142.729 31.6913 141.801 31.0088C140.891 30.3088 140.436 29.3288 140.436 28.0688C140.436 26.6338 140.961 25.5313 142.011 24.7613C143.079 23.9738 144.619 23.58 146.631 23.58H149.309V22.9238C149.309 22.3113 149.081 21.83 148.626 21.48C148.171 21.1125 147.559 20.9288 146.789 20.9288C146.106 20.9288 145.546 21.0775 145.109 21.375C144.671 21.6725 144.409 22.075 144.321 22.5825H140.751C140.874 21.2 141.486 20.1325 142.589 19.38C143.691 18.61 145.152 18.225 146.972 18.225C148.88 18.225 150.35 18.645 151.382 19.485C152.432 20.325 152.957 21.5413 152.957 23.1338V27.885C152.957 28.2175 153.027 28.445 153.167 28.5675C153.307 28.69 153.526 28.7513 153.824 28.7513H154.244ZM149.309 26.0475H146.605C145.835 26.0475 145.231 26.205 144.794 26.52C144.374 26.8175 144.164 27.2463 144.164 27.8063C144.164 28.2788 144.339 28.655 144.689 28.935C145.056 29.215 145.546 29.355 146.159 29.355C147.121 29.355 147.882 29.0838 148.442 28.5413C149.002 27.9813 149.291 27.2375 149.309 26.31V26.0475Z" fill="#AEA5BA"/>
<path d="M155.492 21.5063H153.26V18.3825H155.492V14.6025H159.193V18.3825H162.264V21.5063H159.193V27.4125C159.193 27.885 159.289 28.2263 159.482 28.4363C159.692 28.6463 160.033 28.7513 160.505 28.7513H162.422V31.875H159.35C156.778 31.875 155.492 30.5888 155.492 28.0163V21.5063Z" fill="#AEA5BA"/>
<path d="M175.695 26.7563C175.45 28.4013 174.75 29.6963 173.595 30.6413C172.457 31.5688 170.978 32.0325 169.158 32.0325C167.758 32.0325 166.533 31.7525 165.483 31.1925C164.433 30.615 163.62 29.8013 163.042 28.7513C162.482 27.7013 162.202 26.4938 162.202 25.1288C162.202 23.7463 162.482 22.5388 163.042 21.5063C163.62 20.4563 164.433 19.6513 165.483 19.0913C166.551 18.5138 167.785 18.225 169.185 18.225C170.987 18.225 172.457 18.6888 173.595 19.6163C174.732 20.5263 175.432 21.795 175.695 23.4225H171.862C171.705 22.7575 171.39 22.2325 170.917 21.8475C170.445 21.445 169.858 21.2438 169.158 21.2438C168.196 21.2438 167.426 21.6025 166.848 22.32C166.271 23.0375 165.982 23.9738 165.982 25.1288C165.982 26.2838 166.271 27.22 166.848 27.9375C167.426 28.655 168.196 29.0138 169.158 29.0138C169.876 29.0138 170.471 28.8125 170.943 28.41C171.433 28.0075 171.748 27.4563 171.888 26.7563H175.695Z" fill="#AEA5BA"/>
<path d="M184.339 18.225C185.931 18.225 187.235 18.715 188.25 19.695C189.283 20.675 189.799 22.2938 189.799 24.5513V31.875H186.098V24.7088C186.098 23.5888 185.87 22.74 185.415 22.1625C184.96 21.5675 184.278 21.27 183.368 21.27C182.423 21.27 181.679 21.5938 181.136 22.2413C180.611 22.8888 180.349 23.79 180.349 24.945V31.875H176.648V13.5H180.349V20.0363C181.346 18.8288 182.676 18.225 184.339 18.225Z" fill="#AEA5BA"/>
</svg>
