<svg width="178" height="45" viewBox="0 0 178 45" fill="none" xmlns="http://www.w3.org/2000/svg">
<path d="M20.8563 3.75C17.4437 3.75 14.6875 6.47275 14.6875 9.84375C14.6875 13.1889 17.4437 15.9115 20.83 15.9375C19.99 15.9115 19.3338 15.2374 19.3338 14.4076C19.3338 13.5778 20.0163 12.8777 20.8825 12.8777C24.5575 12.8777 32.7213 12.8777 36.3175 12.8777C38.8638 12.8777 40.9375 10.8291 40.9375 8.31386C40.9375 5.79854 38.8638 3.75 36.3175 3.75L20.8563 3.75Z" fill="#C0C7FD"/>
<path d="M13.3563 15.9375C9.94375 15.9375 7.1875 18.6602 7.1875 22.0313C7.1875 25.3764 9.94375 28.099 13.33 28.125C12.49 28.099 11.8338 27.4249 11.8338 26.5951C11.8338 25.7653 12.5163 25.0652 13.3825 25.0652C17.0575 25.0652 25.2213 25.0652 28.8175 25.0652C31.3638 25.0652 33.4375 23.0166 33.4375 20.5014C33.4375 17.986 31.3638 15.9375 28.8175 15.9375L13.3563 15.9375Z" fill="#C0C7FD"/>
<path d="M8.17188 28.125C4.51562 28.125 1.5625 31.0572 1.5625 34.6875C1.5625 38.2899 4.51562 41.2221 8.14373 41.25C7.24374 41.2221 6.54063 40.496 6.54063 39.6024C6.54063 38.7088 7.27189 37.9548 8.20003 37.9548C12.1375 37.9548 20.8844 37.9548 24.7375 37.9548C27.4656 37.9548 29.6875 35.7487 29.6875 33.0399C29.6875 30.3311 27.4656 28.125 24.7375 28.125L8.17188 28.125Z" fill="#C0C7FD"/>
<path d="M50.2937 31.79V12.1025H62.95V15.4775H54.0062V20.1744H62.1625V23.5494H54.0062V28.415H63.1187V31.79H50.2937Z" fill="#AEA5BA"/>
<path d="M64.5731 37.415V17.84H68.0606V19.5275H68.5668C68.8856 18.9837 69.3824 18.5056 70.0574 18.0931C70.7324 17.6619 71.6981 17.4462 72.9543 17.4462C74.0793 17.4462 75.1199 17.7275 76.0762 18.29C77.0324 18.8337 77.8012 19.64 78.3824 20.7087C78.9637 21.7775 79.2543 23.0712 79.2543 24.59V25.04C79.2543 26.5587 78.9637 27.8525 78.3824 28.9212C77.8012 29.99 77.0324 30.8056 76.0762 31.3681C75.1199 31.9119 74.0793 32.1837 72.9543 32.1837C72.1106 32.1837 71.3981 32.0806 70.8168 31.8744C70.2543 31.6869 69.7949 31.4431 69.4387 31.1431C69.1012 30.8244 68.8293 30.5056 68.6231 30.1869H68.1168V37.415H64.5731ZM71.8856 29.09C72.9918 29.09 73.9012 28.7431 74.6137 28.0494C75.3449 27.3369 75.7106 26.3056 75.7106 24.9556V24.6744C75.7106 23.3244 75.3449 22.3025 74.6137 21.6087C73.8824 20.8962 72.9731 20.54 71.8856 20.54C70.7981 20.54 69.8887 20.8962 69.1574 21.6087C68.4262 22.3025 68.0606 23.3244 68.0606 24.6744V24.9556C68.0606 26.3056 68.4262 27.3369 69.1574 28.0494C69.8887 28.7431 70.7981 29.09 71.8856 29.09Z" fill="#AEA5BA"/>
<path d="M81.102 31.79V17.84H84.6458V31.79H81.102ZM82.8739 16.2087C82.2364 16.2087 81.6926 16.0025 81.2426 15.59C80.8114 15.1775 80.5958 14.6337 80.5958 13.9587C80.5958 13.2837 80.8114 12.74 81.2426 12.3275C81.6926 11.915 82.2364 11.7087 82.8739 11.7087C83.5301 11.7087 84.0739 11.915 84.5051 12.3275C84.9364 12.74 85.152 13.2837 85.152 13.9587C85.152 14.6337 84.9364 15.1775 84.5051 15.59C84.0739 16.0025 83.5301 16.2087 82.8739 16.2087Z" fill="#AEA5BA"/>
<path d="M93.7196 32.1837C92.3696 32.1837 91.1415 31.9025 90.0352 31.34C88.9477 30.7775 88.0852 29.9619 87.4477 28.8931C86.8102 27.8244 86.4915 26.5306 86.4915 25.0119V24.6181C86.4915 23.0994 86.8102 21.8056 87.4477 20.7369C88.0852 19.6681 88.9477 18.8525 90.0352 18.29C91.1415 17.7275 92.3696 17.4462 93.7196 17.4462C95.0508 17.4462 96.1946 17.6806 97.1508 18.1494C98.1071 18.6181 98.8758 19.265 99.4571 20.09C100.057 20.8962 100.451 21.815 100.638 22.8462L97.2071 23.5775C97.1321 23.015 96.9633 22.5087 96.7008 22.0587C96.4383 21.6087 96.0633 21.2525 95.5758 20.99C95.1071 20.7275 94.5165 20.5962 93.804 20.5962C93.0915 20.5962 92.4446 20.7556 91.8633 21.0744C91.3008 21.3744 90.8508 21.8337 90.5133 22.4525C90.1946 23.0525 90.0352 23.7931 90.0352 24.6744V24.9556C90.0352 25.8369 90.1946 26.5869 90.5133 27.2056C90.8508 27.8056 91.3008 28.265 91.8633 28.5837C92.4446 28.8837 93.0915 29.0337 93.804 29.0337C94.8727 29.0337 95.679 28.7619 96.2227 28.2181C96.7852 27.6556 97.1415 26.9244 97.2915 26.0244L100.723 26.84C100.479 27.8337 100.057 28.7431 99.4571 29.5681C98.8758 30.3744 98.1071 31.0119 97.1508 31.4806C96.1946 31.9494 95.0508 32.1837 93.7196 32.1837Z" fill="#AEA5BA"/>
<path d="M107.555 32.015C106.468 32.015 105.512 31.7712 104.687 31.2837C103.88 30.7775 103.252 30.0837 102.802 29.2025C102.352 28.3212 102.127 27.3087 102.127 26.165V17.84H105.671V25.8837C105.671 26.9337 105.924 27.7212 106.43 28.2462C106.955 28.7712 107.696 29.0337 108.652 29.0337C109.74 29.0337 110.583 28.6775 111.183 27.965C111.783 27.2337 112.083 26.2212 112.083 24.9275V17.84H115.627V31.79H112.14V29.9619H111.633C111.408 30.4306 110.987 30.89 110.368 31.34C109.749 31.79 108.812 32.015 107.555 32.015Z" fill="#AEA5BA"/>
<path d="M118.164 31.79V17.84H121.652V19.415H122.158C122.364 18.8525 122.702 18.44 123.171 18.1775C123.658 17.915 124.221 17.7837 124.858 17.7837H126.546V20.9337H124.802C123.902 20.9337 123.161 21.1775 122.58 21.665C121.999 22.1337 121.708 22.865 121.708 23.8587V31.79H118.164Z" fill="#AEA5BA"/>
<path d="M127.909 31.79V17.84H131.453V31.79H127.909ZM129.681 16.2087C129.044 16.2087 128.5 16.0025 128.05 15.59C127.619 15.1775 127.403 14.6337 127.403 13.9587C127.403 13.2837 127.619 12.74 128.05 12.3275C128.5 11.915 129.044 11.7087 129.681 11.7087C130.337 11.7087 130.881 11.915 131.312 12.3275C131.744 12.74 131.959 13.2837 131.959 13.9587C131.959 14.6337 131.744 15.1775 131.312 15.59C130.881 16.0025 130.337 16.2087 129.681 16.2087Z" fill="#AEA5BA"/>
<path d="M140.611 32.1837C139.224 32.1837 137.977 31.9025 136.871 31.34C135.764 30.7775 134.892 29.9619 134.255 28.8931C133.617 27.8244 133.299 26.54 133.299 25.04V24.59C133.299 23.09 133.617 21.8056 134.255 20.7369C134.892 19.6681 135.764 18.8525 136.871 18.29C137.977 17.7275 139.224 17.4462 140.611 17.4462C141.999 17.4462 143.246 17.7275 144.352 18.29C145.458 18.8525 146.33 19.6681 146.967 20.7369C147.605 21.8056 147.924 23.09 147.924 24.59V25.04C147.924 26.54 147.605 27.8244 146.967 28.8931C146.33 29.9619 145.458 30.7775 144.352 31.34C143.246 31.9025 141.999 32.1837 140.611 32.1837ZM140.611 29.0337C141.699 29.0337 142.599 28.6869 143.311 27.9931C144.024 27.2806 144.38 26.2681 144.38 24.9556V24.6744C144.38 23.3619 144.024 22.3587 143.311 21.665C142.617 20.9525 141.717 20.5962 140.611 20.5962C139.524 20.5962 138.624 20.9525 137.911 21.665C137.199 22.3587 136.842 23.3619 136.842 24.6744V24.9556C136.842 26.2681 137.199 27.2806 137.911 27.9931C138.624 28.6869 139.524 29.0337 140.611 29.0337Z" fill="#AEA5BA"/>
<path d="M155.104 32.015C154.017 32.015 153.06 31.7712 152.235 31.2837C151.429 30.7775 150.801 30.0837 150.351 29.2025C149.901 28.3212 149.676 27.3087 149.676 26.165V17.84H153.22V25.8837C153.22 26.9337 153.473 27.7212 153.979 28.2462C154.504 28.7712 155.245 29.0337 156.201 29.0337C157.289 29.0337 158.132 28.6775 158.732 27.965C159.332 27.2337 159.632 26.2212 159.632 24.9275V17.84H163.176V31.79H159.689V29.9619H159.182C158.957 30.4306 158.535 30.89 157.917 31.34C157.298 31.79 156.36 32.015 155.104 32.015Z" fill="#AEA5BA"/>
<path d="M171.507 32.1837C169.688 32.1837 168.198 31.79 167.035 31.0025C165.873 30.215 165.169 29.09 164.926 27.6275L168.188 26.7837C168.319 27.44 168.535 27.9556 168.835 28.3306C169.154 28.7056 169.538 28.9775 169.988 29.1462C170.457 29.2962 170.963 29.3712 171.507 29.3712C172.332 29.3712 172.941 29.2306 173.335 28.9494C173.729 28.6494 173.926 28.2837 173.926 27.8525C173.926 27.4212 173.738 27.0931 173.363 26.8681C172.988 26.6244 172.388 26.4275 171.563 26.2775L170.776 26.1369C169.801 25.9494 168.91 25.6962 168.104 25.3775C167.298 25.04 166.651 24.5806 166.163 23.9994C165.676 23.4181 165.432 22.6681 165.432 21.7494C165.432 20.3619 165.938 19.3025 166.951 18.5712C167.963 17.8212 169.294 17.4462 170.944 17.4462C172.501 17.4462 173.794 17.7931 174.826 18.4869C175.857 19.1806 176.532 20.09 176.851 21.215L173.56 22.2275C173.41 21.515 173.101 21.0087 172.632 20.7087C172.182 20.4087 171.619 20.2587 170.944 20.2587C170.269 20.2587 169.754 20.3806 169.398 20.6244C169.041 20.8494 168.863 21.1681 168.863 21.5806C168.863 22.0306 169.051 22.3681 169.426 22.5931C169.801 22.7994 170.307 22.9587 170.944 23.0712L171.732 23.2119C172.782 23.3994 173.729 23.6525 174.573 23.9712C175.435 24.2712 176.11 24.7119 176.598 25.2931C177.104 25.8556 177.357 26.6244 177.357 27.5994C177.357 29.0619 176.823 30.1962 175.754 31.0025C174.704 31.79 173.288 32.1837 171.507 32.1837Z" fill="#AEA5BA"/>
</svg>
