<svg width="185" height="45" viewBox="0 0 185 45" fill="none" xmlns="http://www.w3.org/2000/svg">
<path d="M28.7146 1.875H12.9104L0.1875 14.5979V30.4021L12.9104 43.125H28.7146L41.4375 30.4021V14.5979L28.7146 1.875ZM15.0971 30.6009L6.94655 22.4503L15.0971 14.2997C18.1785 11.2184 23.2478 11.2184 26.3291 14.2997L34.4797 22.4503L26.3291 30.6009C23.2478 33.6822 18.2779 33.6822 15.0971 30.6009Z" fill="#C0C7FD"/>
<path d="M59.5688 32.1001C62.1 32.1001 64.1813 30.8064 64.8282 28.8658V31.8751H68.5688V24.2814C68.5688 22.5658 67.2188 21.1033 65.3907 21.1033H60.0469V24.2814H63.8438C64.3219 24.2814 64.6313 24.5908 64.6313 25.0689C64.6313 26.897 62.2125 28.6689 59.7657 28.6689C56.5032 28.6689 53.9157 26.1095 53.9157 22.0314C53.9157 17.9533 56.5032 15.5908 59.85 15.5908C62.3813 15.5908 64.125 16.9689 64.4344 19.0783H68.625C68.3719 14.8595 64.8282 11.9626 59.8782 11.9626C54.675 11.9626 49.8938 15.3095 49.8938 22.0314C49.8938 28.7533 54.5344 32.1001 59.5688 32.1001Z" fill="#AEA5BA"/>
<path d="M70.1746 31.8751H74.0839V11.5408H70.1746V31.8751Z" fill="#AEA5BA"/>
<path d="M82.5168 32.1001C86.8762 32.1001 89.9981 29.0064 89.9981 24.7876C89.9981 20.5689 86.8762 17.4751 82.5168 17.4751C78.1574 17.4751 75.0356 20.5689 75.0356 24.7876C75.0356 29.0064 78.1574 32.1001 82.5168 32.1001ZM82.5168 28.7251C80.4074 28.7251 78.9731 27.122 78.9731 24.7876C78.9731 22.4251 80.4074 20.822 82.5168 20.822C84.6262 20.822 86.0606 22.4251 86.0606 24.7876C86.0606 27.122 84.6262 28.7251 82.5168 28.7251Z" fill="#AEA5BA"/>
<path d="M98.7458 32.1001C102.936 32.1001 105.44 29.2033 105.44 24.7876C105.44 20.372 102.936 17.4751 98.8021 17.4751C97.0302 17.4751 95.6521 18.1501 94.8646 19.1908V11.5408H90.9552V31.8751H94.8646V30.3283C95.6521 31.4251 97.1146 32.1001 98.7458 32.1001ZM98.1271 28.7251C96.0177 28.7251 94.6396 27.1501 94.6396 24.7876C94.6396 22.397 96.0177 20.822 98.1271 20.822C100.18 20.822 101.586 22.397 101.586 24.7876C101.586 27.1501 100.18 28.7251 98.1271 28.7251Z" fill="#AEA5BA"/>
<path d="M111.984 17.4751C108.102 17.4751 105.796 19.7533 105.627 22.5939H109.115C109.171 21.4126 110.043 20.3439 111.759 20.3439C113.362 20.3439 114.29 21.1595 114.29 22.3408C114.29 22.9314 113.924 23.3814 113.221 23.3814H110.831C107.737 23.3814 105.656 25.0689 105.656 27.8533C105.656 30.272 107.54 32.1001 110.296 32.1001C112.237 32.1001 113.812 31.2283 114.29 29.9064V31.8751H118.171V22.7626C118.171 19.5564 115.556 17.4751 111.984 17.4751ZM111.281 29.2595C110.184 29.2595 109.396 28.6126 109.396 27.6845C109.396 26.5876 110.24 25.8564 111.421 25.8564H114.29V26.0533C114.29 27.8533 113.193 29.2595 111.281 29.2595Z" fill="#AEA5BA"/>
<path d="M119.673 31.8751H123.583V11.5408H119.673V31.8751Z" fill="#AEA5BA"/>
<path d="M125.659 31.8751H133.703C137.866 31.8751 140.734 29.7376 140.734 25.997C140.734 23.4095 139.216 21.8345 137.416 21.1314C138.569 20.5126 139.722 19.1064 139.722 17.2501C139.722 13.9595 137.05 12.1876 133.478 12.1876H125.659V31.8751ZM129.822 19.697V15.5345H133.084C134.969 15.5345 135.813 16.2939 135.813 17.6158C135.813 18.9376 134.969 19.697 133.169 19.697H129.822ZM129.822 28.2189V23.2689H133.338C135.672 23.2689 136.713 24.1689 136.713 25.772C136.713 27.3751 135.672 28.2189 133.338 28.2189H129.822Z" fill="#AEA5BA"/>
<path d="M147.535 17.4751C143.654 17.4751 141.348 19.7533 141.179 22.5939H144.667C144.723 21.4126 145.595 20.3439 147.31 20.3439C148.914 20.3439 149.842 21.1595 149.842 22.3408C149.842 22.9314 149.476 23.3814 148.773 23.3814H146.382C143.289 23.3814 141.207 25.0689 141.207 27.8533C141.207 30.272 143.092 32.1001 145.848 32.1001C147.789 32.1001 149.364 31.2283 149.842 29.9064V31.8751H153.723V22.7626C153.723 19.5564 151.107 17.4751 147.535 17.4751ZM146.832 29.2595C145.735 29.2595 144.948 28.6126 144.948 27.6845C144.948 26.5876 145.792 25.8564 146.973 25.8564H149.842V26.0533C149.842 27.8533 148.745 29.2595 146.832 29.2595Z" fill="#AEA5BA"/>
<path d="M155 31.8751H158.938V24.1126C158.938 22.2845 160.147 20.9626 161.863 20.9626C163.494 20.9626 164.591 22.2001 164.591 23.9158V31.8751H168.528V23.0439C168.528 19.7814 166.447 17.4751 163.241 17.4751C161.3 17.4751 159.725 18.2908 158.938 19.6689V17.7001H155V31.8751Z" fill="#AEA5BA"/>
<path d="M179.75 31.8751H184.475L178.372 23.2689L184.025 17.7001H179.075L174.154 22.5376V11.5408H170.216V31.8751H174.154V27.4314L175.729 25.8845L179.75 31.8751Z" fill="#AEA5BA"/>
</svg>
