<svg width="157" height="45" viewBox="0 0 157 45" fill="none" xmlns="http://www.w3.org/2000/svg">
<path fill-rule="evenodd" clip-rule="evenodd" d="M18.9051 3.23246C18.4317 3.13508 17.9433 3.13508 17.4699 3.23246C16.9225 3.34502 16.4334 3.61902 16.0445 3.83685L15.9384 3.89606L2.75768 11.2187C2.72124 11.239 2.68369 11.2596 2.64522 11.2808C2.23353 11.5076 1.71589 11.7927 1.31838 12.2241C0.974695 12.597 0.714606 13.039 0.555502 13.5206C0.371475 14.0776 0.373628 14.6685 0.37534 15.1385C0.375501 15.1825 0.375657 15.2253 0.375657 15.267V29.7251C0.375657 29.7668 0.375501 29.8096 0.37534 29.8535C0.373628 30.3236 0.371475 30.9145 0.555502 31.4715C0.714607 31.953 0.974697 32.3951 1.31838 32.768C1.71589 33.1994 2.23354 33.4845 2.64522 33.7112C2.6837 33.7324 2.72125 33.7531 2.75769 33.7734L15.9385 41.096L16.0445 41.1552C16.4334 41.3731 16.9226 41.647 17.4699 41.7596C17.9433 41.857 18.4317 41.857 18.9051 41.7596C19.4525 41.647 19.9416 41.3731 20.3305 41.1552L20.4366 41.096L33.6173 33.7734C33.6334 33.7644 33.6498 33.7554 33.6663 33.7462C33.6871 33.7347 33.7083 33.7231 33.7298 33.7112C34.1415 33.4845 34.6591 33.1994 35.0566 32.768C35.4003 32.3951 35.6604 31.953 35.8195 31.4715C36.0035 30.9145 36.0014 30.3235 35.9997 29.8535C35.9995 29.8096 35.9993 29.7668 35.9993 29.7251V15.267C35.9993 15.2253 35.9995 15.1825 35.9997 15.1385C36.0014 14.6685 36.0035 14.0776 35.8195 13.5206C35.6604 13.039 35.4003 12.597 35.0566 12.2241C34.6591 11.7927 34.1415 11.5076 33.7298 11.2808L33.7283 11.28C33.6904 11.2591 33.6533 11.2387 33.6173 11.2187L20.4366 3.89606L20.3305 3.83684C19.9416 3.61901 19.4525 3.34502 18.9051 3.23246ZM17.6685 7.01013C17.9384 6.86018 18.0762 6.78441 18.179 6.73483L18.1875 6.73075L18.196 6.73483C18.2988 6.78441 18.4366 6.86017 18.7065 7.01013L30.5504 13.5901L18.1874 20.4584L5.82454 13.5901L17.6685 7.01013ZM3.93803 16.6172L16.4063 23.544L16.4063 37.2807L4.48773 30.6593C4.20282 30.501 4.05736 30.4194 3.95531 30.3543L3.94669 30.3488L3.94604 30.3386C3.93877 30.2178 3.93803 30.051 3.93803 29.7251V16.6172Z" fill="#C0C7FD"/>
<path d="M52.2104 28.4487H57.8804V31.79H47.882V14.0206H52.2104V28.4487Z" fill="#AEA5BA"/>
<path d="M61.8687 16.1975C61.1093 16.1975 60.4849 15.9781 59.9956 15.5393C59.5231 15.0837 59.2868 14.5268 59.2868 13.8687C59.2868 13.1937 59.5231 12.6368 59.9956 12.1981C60.4849 11.7425 61.1093 11.5146 61.8687 11.5146C62.6112 11.5146 63.2187 11.7425 63.6912 12.1981C64.1806 12.6368 64.4253 13.1937 64.4253 13.8687C64.4253 14.5268 64.1806 15.0837 63.6912 15.5393C63.2187 15.9781 62.6112 16.1975 61.8687 16.1975ZM64.0203 17.6656V31.79H59.6918V17.6656H64.0203Z" fill="#AEA5BA"/>
<path d="M72.2702 17.4631C73.2658 17.4631 74.1348 17.6656 74.8773 18.0706C75.6367 18.4756 76.2189 19.0071 76.6239 19.6653V17.6656H80.9523V31.7646C80.9523 33.064 80.6908 34.2368 80.1677 35.2831C79.6614 36.3462 78.8767 37.19 77.8136 37.8143C76.7673 38.4387 75.4595 38.7509 73.8902 38.7509C71.7977 38.7509 70.1017 38.2531 68.8023 37.2575C67.503 36.2787 66.7605 34.9456 66.5748 33.2581H70.8527C70.9877 33.7981 71.3083 34.22 71.8145 34.5237C72.3208 34.8443 72.9452 35.0046 73.6877 35.0046C74.582 35.0046 75.2908 34.7431 75.8139 34.22C76.3539 33.7137 76.6239 32.8953 76.6239 31.7646V29.765C76.202 30.4231 75.6198 30.9631 74.8773 31.385C74.1348 31.79 73.2658 31.9925 72.2702 31.9925C71.1058 31.9925 70.0511 31.6971 69.1061 31.1065C68.1611 30.499 67.4102 29.6468 66.8533 28.55C66.3133 27.4362 66.0433 26.1537 66.0433 24.7025C66.0433 23.2512 66.3133 21.9771 66.8533 20.8803C67.4102 19.7834 68.1611 18.9396 69.1061 18.349C70.0511 17.7584 71.1058 17.4631 72.2702 17.4631ZM76.6239 24.7278C76.6239 23.6478 76.3202 22.7956 75.7127 22.1712C75.122 21.5468 74.3964 21.2346 73.5358 21.2346C72.6752 21.2346 71.9411 21.5468 71.3336 22.1712C70.743 22.7787 70.4477 23.6225 70.4477 24.7025C70.4477 25.7825 70.743 26.6431 71.3336 27.2843C71.9411 27.9087 72.6752 28.2209 73.5358 28.2209C74.3964 28.2209 75.122 27.9087 75.7127 27.2843C76.3202 26.66 76.6239 25.8078 76.6239 24.7278Z" fill="#AEA5BA"/>
<path d="M92.5128 17.5137C94.1328 17.5137 95.4322 18.0537 96.411 19.1337C97.3897 20.1968 97.8791 21.665 97.8791 23.5381V31.79H93.576V24.1203C93.576 23.1753 93.3313 22.4412 92.8419 21.9181C92.3525 21.395 91.6944 21.1334 90.8675 21.1334C90.0407 21.1334 89.3825 21.395 88.8932 21.9181C88.4038 22.4412 88.1591 23.1753 88.1591 24.1203V31.79H83.8307V13.0587H88.1591V19.564C88.5978 18.9396 89.1969 18.4418 89.9563 18.0706C90.7157 17.6993 91.5678 17.5137 92.5128 17.5137Z" fill="#AEA5BA"/>
<path d="M108.506 28.1196V31.79H106.304C104.734 31.79 103.511 31.4103 102.633 30.6509C101.756 29.8746 101.317 28.6175 101.317 26.8793V21.26H99.596V17.6656H101.317V14.2231H105.646V17.6656H108.481V21.26H105.646V26.93C105.646 27.3518 105.747 27.6556 105.949 27.8412C106.152 28.0268 106.489 28.1196 106.962 28.1196H108.506Z" fill="#AEA5BA"/>
<path d="M114.992 19.6653C115.397 19.0071 115.98 18.4756 116.739 18.0706C117.498 17.6656 118.367 17.4631 119.346 17.4631C120.51 17.4631 121.565 17.7584 122.51 18.349C123.455 18.9396 124.198 19.7834 124.738 20.8803C125.294 21.9771 125.573 23.2512 125.573 24.7025C125.573 26.1537 125.294 27.4362 124.738 28.55C124.198 29.6468 123.455 30.499 122.51 31.1065C121.565 31.6971 120.51 31.9925 119.346 31.9925C118.35 31.9925 117.481 31.7984 116.739 31.4103C115.996 31.0053 115.414 30.4737 114.992 29.8156V31.79H110.664V13.0587H114.992V19.6653ZM121.169 24.7025C121.169 23.6225 120.865 22.7787 120.257 22.1712C119.667 21.5468 118.933 21.2346 118.055 21.2346C117.195 21.2346 116.46 21.5468 115.853 22.1712C115.262 22.7956 114.967 23.6478 114.967 24.7278C114.967 25.8078 115.262 26.66 115.853 27.2843C116.46 27.9087 117.195 28.2209 118.055 28.2209C118.916 28.2209 119.65 27.9087 120.257 27.2843C120.865 26.6431 121.169 25.7825 121.169 24.7025Z" fill="#AEA5BA"/>
<path d="M134.02 31.9925C132.636 31.9925 131.387 31.6971 130.274 31.1065C129.177 30.5159 128.308 29.6721 127.667 28.5753C127.042 27.4784 126.73 26.1959 126.73 24.7278C126.73 23.2765 127.051 22.0025 127.692 20.9056C128.333 19.7918 129.211 18.9396 130.324 18.349C131.438 17.7584 132.687 17.4631 134.071 17.4631C135.454 17.4631 136.703 17.7584 137.817 18.349C138.931 18.9396 139.808 19.7918 140.449 20.9056C141.091 22.0025 141.411 23.2765 141.411 24.7278C141.411 26.179 141.082 27.4615 140.424 28.5753C139.783 29.6721 138.897 30.5159 137.766 31.1065C136.652 31.6971 135.404 31.9925 134.02 31.9925ZM134.02 28.2462C134.847 28.2462 135.547 27.9425 136.121 27.335C136.712 26.7275 137.007 25.8584 137.007 24.7278C137.007 23.5972 136.72 22.7281 136.146 22.1206C135.589 21.5131 134.897 21.2093 134.071 21.2093C133.227 21.2093 132.527 21.5131 131.97 22.1206C131.413 22.7112 131.134 23.5803 131.134 24.7278C131.134 25.8584 131.404 26.7275 131.944 27.335C132.501 27.9425 133.193 28.2462 134.02 28.2462Z" fill="#AEA5BA"/>
<path d="M151.808 31.79L149.099 27.8665L146.821 31.79H142.138L146.796 24.5759L142.012 17.6656H146.872L149.58 21.5637L151.858 17.6656H156.541L151.808 24.7784L156.668 31.79H151.808Z" fill="#AEA5BA"/>
</svg>
