<svg width="171" height="45" viewBox="0 0 171 45" fill="none" xmlns="http://www.w3.org/2000/svg">
<g clip-path="url(#clip0_1791_1607)">
<path d="M25.565 3.864L21.6081 2.80371L18.2734 15.2487L15.2629 4.01328L11.3058 5.07357L14.5585 17.2126L6.45679 9.11092L3.56005 12.0077L12.4466 20.8943L1.3798 17.9289L0.319519 21.8859L12.4114 25.126C12.273 24.5288 12.1997 23.9067 12.1997 23.2674C12.1997 18.7424 15.868 15.0741 20.393 15.0741C24.918 15.0741 28.5863 18.7424 28.5863 23.2674C28.5863 23.9026 28.5139 24.5209 28.3772 25.1145L39.3665 28.059L40.4267 24.1021L28.2867 20.8491L39.3543 17.8836L38.294 13.9266L26.1545 17.1793L34.2562 9.07765L31.3595 6.18091L22.5961 14.9443L25.565 3.864Z" fill="#C0C7FD"/>
<path d="M28.3656 25.1606C28.0264 26.5949 27.3101 27.8834 26.3274 28.9157L34.2886 36.8771L37.1854 33.9803L28.3656 25.1606Z" fill="#C0C7FD"/>
<path d="M26.247 28.999C25.2524 30.0148 23.9954 30.7729 22.5859 31.1636L25.4829 41.9751L29.4398 40.9148L26.247 28.999Z" fill="#C0C7FD"/>
<path d="M22.4381 31.2031C21.7841 31.3713 21.0987 31.4606 20.3923 31.4606C19.6355 31.4606 18.9027 31.358 18.207 31.1659L15.3074 41.9873L19.2644 43.0475L22.4381 31.2031Z" fill="#C0C7FD"/>
<path d="M18.067 31.126C16.679 30.7159 15.4445 29.9482 14.4701 28.9294L6.4893 36.9103L9.38605 39.807L18.067 31.126Z" fill="#C0C7FD"/>
<path d="M14.4044 28.8589C13.4468 27.8337 12.7493 26.5623 12.4172 25.1502L1.39206 28.1044L2.45234 32.0614L14.4044 28.8589Z" fill="#C0C7FD"/>
</g>
<path d="M64.2375 12.1023V26.3617L55.0969 12.1023H51.4406V31.7898H55.0969V17.6429L64.2375 31.7898H67.8937V12.1023H64.2375Z" fill="#AEA5BA"/>
<path d="M69.5412 15.7867H73.31V12.1023H69.5412V15.7867ZM69.5975 31.7898V17.7273H73.2537V31.7898H69.5975Z" fill="#AEA5BA"/>
<path d="M88.9851 24.7585C88.9851 19.8929 85.5257 17.5867 81.8694 17.5585C78.1851 17.5304 74.7819 19.8929 74.7819 24.7585C74.7819 29.6242 78.1851 31.9867 81.8694 31.9585C85.2163 31.9304 87.5226 30.3835 88.5913 27.8242L85.7507 26.6429C84.8788 28.3867 83.5007 29.0054 81.8694 29.0335C80.4632 29.0617 78.8601 28.3867 78.5226 25.8835H88.9007C88.9569 25.5179 88.9851 25.1523 88.9851 24.7585ZM81.8694 20.4554C83.2757 20.4835 84.7101 21.2429 85.1601 23.2679H78.5788C79.0569 21.2148 80.4913 20.4273 81.8694 20.4554Z" fill="#AEA5BA"/>
<path d="M97.4349 20.3429V17.5585H95.1286V13.7898L91.4724 14.9148V17.5585H89.1661V20.3429H91.4724V27.6273C91.4724 30.3835 91.6974 31.7898 95.9724 31.7898H96.9568V28.5835H95.9724C95.2974 28.5835 95.1286 28.471 95.1286 27.6273V20.3429H97.4349Z" fill="#AEA5BA"/>
<path d="M102.868 28.7242L110.63 20.7929V17.7273H98.9866V20.7929H106.524L98.7616 28.7242V31.7898H110.715V28.7242H102.868Z" fill="#AEA5BA"/>
<path d="M112.026 27.8242L115.71 27.2617C115.963 28.6679 117.622 29.2023 118.635 29.2023C119.676 29.2023 121.476 28.9773 121.476 27.2898C121.476 23.9992 112.447 28.1054 112.447 21.8054C112.447 17.7554 117.144 17.5304 118.635 17.5304C120.041 17.5304 124.119 17.7554 124.963 21.0179L121.476 21.7492C121.166 20.2585 119.591 19.9773 118.747 19.9773C117.904 19.9773 116.104 20.1742 116.104 21.8054C116.104 25.0679 125.132 20.9054 125.132 27.2898C125.132 31.5929 120.182 31.9585 118.635 31.9585C117.229 31.9585 112.757 31.5929 112.026 27.8242Z" fill="#AEA5BA"/>
<path d="M129.882 24.7585C129.882 28.1898 131.71 29.2304 133.622 29.2023C135.338 29.1742 136.519 28.471 137.222 26.5023L140.232 27.9648C139.135 30.8335 136.463 31.9304 133.622 31.9585C129.938 31.9867 126.225 29.6242 126.225 24.7585C126.225 19.8929 129.938 17.5304 133.622 17.5585C136.463 17.5867 139.135 18.6835 140.232 21.5523L137.222 23.0148C136.519 21.046 135.338 20.3429 133.622 20.3148C131.71 20.2867 129.882 21.3273 129.882 24.7585Z" fill="#AEA5BA"/>
<path d="M150.047 17.5023C148.163 17.5023 146.447 18.4867 145.35 20.596V12.1023H141.694V31.7898H145.35V26.8117C145.35 20.371 148.022 19.8367 149.006 19.8367C150.581 19.8367 150.806 21.4679 150.806 23.8585V31.7898H154.463V23.8585C154.463 20.8773 153.985 17.5023 150.047 17.5023Z" fill="#AEA5BA"/>
<path d="M169.899 24.7585C169.899 19.8929 166.44 17.5867 162.784 17.5585C159.099 17.5304 155.696 19.8929 155.696 24.7585C155.696 29.6242 159.099 31.9867 162.784 31.9585C166.131 31.9304 168.437 30.3835 169.506 27.8242L166.665 26.6429C165.793 28.3867 164.415 29.0054 162.784 29.0335C161.378 29.0617 159.774 28.3867 159.437 25.8835H169.815C169.871 25.5179 169.899 25.1523 169.899 24.7585ZM162.784 20.4554C164.19 20.4835 165.624 21.2429 166.074 23.2679H159.493C159.971 21.2148 161.406 20.4273 162.784 20.4554Z" fill="#AEA5BA"/>
<defs>
<clipPath id="clip0_1791_1607">
<rect width="41.25" height="41.25" fill="white" transform="translate(0 1.875)"/>
</clipPath>
</defs>
</svg>
