<svg width="167" height="45" viewBox="0 0 167 45" fill="none" xmlns="http://www.w3.org/2000/svg">
<circle cx="18.75" cy="22.5" r="15.9375" stroke="#C0C7FD" stroke-width="5.625"/>
<path d="M62.0475 19.1375C62.0475 20.1175 61.8112 21.0362 61.3387 21.8937C60.8837 22.7512 60.1575 23.4425 59.16 23.9675C58.18 24.4925 56.9375 24.755 55.4325 24.755H52.3612V31.79H48.6862V13.4675H55.4325C56.85 13.4675 58.0575 13.7125 59.055 14.2025C60.0525 14.6925 60.7962 15.3662 61.2862 16.2237C61.7937 17.0812 62.0475 18.0525 62.0475 19.1375ZM55.275 21.7887C56.29 21.7887 57.0425 21.5612 57.5325 21.1062C58.0225 20.6337 58.2675 19.9775 58.2675 19.1375C58.2675 17.3525 57.27 16.46 55.275 16.46H52.3612V21.7887H55.275Z" fill="#AEA5BA"/>
<path d="M70.0642 32.0262C68.6642 32.0262 67.4042 31.72 66.2842 31.1075C65.1642 30.4775 64.2805 29.5937 63.633 28.4562C63.003 27.3187 62.688 26.0062 62.688 24.5187C62.688 23.0312 63.0117 21.7187 63.6592 20.5812C64.3242 19.4437 65.2255 18.5687 66.363 17.9562C67.5005 17.3262 68.7692 17.0112 70.1692 17.0112C71.5692 17.0112 72.838 17.3262 73.9755 17.9562C75.113 18.5687 76.0055 19.4437 76.653 20.5812C77.318 21.7187 77.6505 23.0312 77.6505 24.5187C77.6505 26.0062 77.3092 27.3187 76.6267 28.4562C75.9617 29.5937 75.0517 30.4775 73.8967 31.1075C72.7592 31.72 71.4817 32.0262 70.0642 32.0262ZM70.0642 28.8237C70.7292 28.8237 71.3505 28.6662 71.928 28.3512C72.523 28.0187 72.9955 27.5287 73.3455 26.8812C73.6955 26.2337 73.8705 25.4462 73.8705 24.5187C73.8705 23.1362 73.503 22.0775 72.768 21.3425C72.0505 20.59 71.1667 20.2137 70.1167 20.2137C69.0667 20.2137 68.183 20.59 67.4655 21.3425C66.7655 22.0775 66.4155 23.1362 66.4155 24.5187C66.4155 25.9012 66.7567 26.9687 67.4392 27.7212C68.1392 28.4562 69.0142 28.8237 70.0642 28.8237Z" fill="#AEA5BA"/>
<path d="M82.9712 12.365V31.79H79.2962V12.365H82.9712Z" fill="#AEA5BA"/>
<path d="M99.4646 17.2475L90.4609 38.6675H86.5496L89.6996 31.4225L83.8721 17.2475H87.9934L91.7471 27.4062L95.5534 17.2475H99.4646Z" fill="#AEA5BA"/>
<path d="M118.456 17.0375C120.241 17.0375 121.676 17.5887 122.761 18.6912C123.863 19.7762 124.414 21.2987 124.414 23.2587V31.79H120.739V23.7575C120.739 22.62 120.451 21.7537 119.873 21.1587C119.296 20.5462 118.508 20.24 117.511 20.24C116.513 20.24 115.717 20.5462 115.122 21.1587C114.544 21.7537 114.256 22.62 114.256 23.7575V31.79H110.581V23.7575C110.581 22.62 110.292 21.7537 109.714 21.1587C109.137 20.5462 108.349 20.24 107.352 20.24C106.337 20.24 105.532 20.5462 104.937 21.1587C104.359 21.7537 104.071 22.62 104.071 23.7575V31.79H100.396V17.2475H104.071V19.0062C104.543 18.3937 105.147 17.9125 105.882 17.5625C106.634 17.2125 107.457 17.0375 108.349 17.0375C109.487 17.0375 110.502 17.2825 111.394 17.7725C112.287 18.245 112.978 18.9275 113.468 19.82C113.941 18.98 114.623 18.3062 115.516 17.7987C116.426 17.2912 117.406 17.0375 118.456 17.0375Z" fill="#AEA5BA"/>
<path d="M125.907 24.4662C125.907 22.9962 126.196 21.6925 126.773 20.555C127.368 19.4175 128.164 18.5425 129.162 17.93C130.177 17.3175 131.306 17.0112 132.548 17.0112C133.633 17.0112 134.578 17.23 135.383 17.6675C136.206 18.105 136.862 18.6562 137.352 19.3212V17.2475H141.053V31.79H137.352V29.6637C136.879 30.3462 136.223 30.915 135.383 31.37C134.561 31.8075 133.607 32.0262 132.522 32.0262C131.297 32.0262 130.177 31.7112 129.162 31.0812C128.164 30.4512 127.368 29.5675 126.773 28.43C126.196 27.275 125.907 25.9537 125.907 24.4662ZM137.352 24.5187C137.352 23.6262 137.177 22.865 136.827 22.235C136.477 21.5875 136.004 21.0975 135.409 20.765C134.814 20.415 134.176 20.24 133.493 20.24C132.811 20.24 132.181 20.4062 131.603 20.7387C131.026 21.0712 130.553 21.5612 130.186 22.2087C129.836 22.8387 129.661 23.5912 129.661 24.4662C129.661 25.3412 129.836 26.1112 130.186 26.7762C130.553 27.4237 131.026 27.9225 131.603 28.2725C132.198 28.6225 132.828 28.7975 133.493 28.7975C134.176 28.7975 134.814 28.6312 135.409 28.2987C136.004 27.9487 136.477 27.4587 136.827 26.8287C137.177 26.1812 137.352 25.4112 137.352 24.5187Z" fill="#AEA5BA"/>
<path d="M147.871 20.2662V27.3012C147.871 27.7912 147.985 28.15 148.212 28.3775C148.457 28.5875 148.86 28.6925 149.42 28.6925H151.126V31.79H148.816C145.719 31.79 144.17 30.285 144.17 27.275V20.2662H142.437V17.2475H144.17V13.6512H147.871V17.2475H151.126V20.2662H147.871Z" fill="#AEA5BA"/>
<path d="M160.909 17.0375C162.012 17.0375 162.992 17.2825 163.849 17.7725C164.707 18.245 165.372 18.9537 165.844 19.8987C166.334 20.8262 166.579 21.9462 166.579 23.2587V31.79H162.904V23.7575C162.904 22.6025 162.616 21.7187 162.038 21.1062C161.461 20.4762 160.673 20.1612 159.676 20.1612C158.661 20.1612 157.856 20.4762 157.261 21.1062C156.683 21.7187 156.394 22.6025 156.394 23.7575V31.79H152.719V12.365H156.394V19.0587C156.867 18.4287 157.497 17.9387 158.284 17.5887C159.072 17.2212 159.947 17.0375 160.909 17.0375Z" fill="#AEA5BA"/>
</svg>
