<svg width="157" height="45" viewBox="0 0 157 45" fill="none" xmlns="http://www.w3.org/2000/svg">
<circle cx="21.1875" cy="22.7344" r="19.2188" stroke="#C0C7FD" stroke-width="2.8125"/>
<path d="M34.7773 9.1447C36.6629 11.0303 37.248 14.2146 36.2323 18.1651C35.2255 22.0805 32.6918 26.4772 28.8111 30.3579C24.9304 34.2386 20.5337 36.7723 16.6183 37.7791C12.6678 38.7948 9.48352 38.2098 7.59789 36.3241C5.71225 34.4385 5.12717 31.2542 6.14293 27.3037C7.14973 23.3883 9.68342 18.9916 13.5641 15.1109C17.4448 11.2302 21.8415 8.69655 25.7569 7.68975C29.7074 6.67398 32.8917 7.25907 34.7773 9.1447Z" stroke="#C0C7FD" stroke-width="2.8125"/>
<path d="M7.59765 9.14457C9.48328 7.25894 12.6675 6.67385 16.6181 7.68962C20.5334 8.69642 24.9302 11.2301 28.8108 15.1108C32.6915 18.9915 35.2252 23.3882 36.232 27.3035C37.2478 31.2541 36.6627 34.4384 34.7771 36.324C32.8914 38.2096 29.7072 38.7947 25.7566 37.7789C21.8413 36.7721 17.4445 34.2385 13.5639 30.3578C9.68317 26.4771 7.14949 22.0804 6.14269 18.165C5.12692 14.2145 5.71201 11.0302 7.59765 9.14457Z" stroke="#C0C7FD" stroke-width="2.8125"/>
<path d="M59.4843 32.1001C63.8999 32.1001 66.8812 29.7939 66.8812 26.1095C66.8812 18.3189 56.5312 21.6376 56.5312 17.5314C56.5312 16.3783 57.5718 15.5908 59.2312 15.5908C61.1156 15.5908 62.2968 16.6033 62.4374 18.1501H66.4593C66.3468 14.4095 63.4781 11.9626 59.2312 11.9626C55.2374 11.9626 52.4249 14.2689 52.4249 17.5314C52.4249 25.2658 62.6343 22.3126 62.6343 26.1658C62.6343 27.6564 61.3687 28.4439 59.4843 28.4439C57.4031 28.4439 56.0812 27.1783 55.9124 25.1814H51.8624C52.0312 29.372 55.0124 32.1001 59.4843 32.1001Z" fill="#AEA5BA"/>
<path d="M67.8376 37.6126H71.747V30.6095C72.5064 31.5658 73.8845 32.1001 75.4876 32.1001C79.5658 32.1001 82.322 29.2033 82.322 24.7876C82.322 20.372 79.7908 17.4751 75.8251 17.4751C73.997 17.4751 72.5908 18.1501 71.747 19.247V17.7001H67.8376V37.6126ZM75.0095 28.7251C72.9001 28.7251 71.522 27.1501 71.522 24.7876C71.522 22.397 72.9001 20.822 75.0095 20.822C77.0626 20.822 78.4689 22.397 78.4689 24.7876C78.4689 27.1501 77.0626 28.7251 75.0095 28.7251Z" fill="#AEA5BA"/>
<path d="M83.2679 31.8751H87.1773V24.1126C87.1773 22.2845 88.3867 20.9626 90.1023 20.9626C91.7336 20.9626 92.8586 22.2001 92.8586 23.9158V31.8751H96.7679V23.0439C96.7679 19.7814 94.6867 17.4751 91.5086 17.4751C89.5398 17.4751 87.9929 18.2908 87.1773 19.6689V11.5408H83.2679V31.8751Z" fill="#AEA5BA"/>
<path d="M107.704 27.0658C107.395 28.2751 106.354 28.8939 104.779 28.8939C102.81 28.8939 101.545 27.6564 101.264 25.6595H111.445C111.473 25.3501 111.501 24.9283 111.501 24.3939C111.501 21.1595 109.504 17.4751 104.498 17.4751C99.6885 17.4751 97.4948 21.1595 97.4948 24.7595C97.4948 28.3314 99.9698 32.1001 104.779 32.1001C108.267 32.1001 110.967 30.1314 111.529 27.0658H107.704ZM104.498 20.3439C106.382 20.3439 107.479 21.6095 107.592 23.1845H101.32C101.657 21.2158 102.726 20.3439 104.498 20.3439Z" fill="#AEA5BA"/>
<path d="M121.754 20.9626V17.7001H119.737C118.021 17.7001 116.952 18.2908 116.193 20.0626V17.7001H112.256V31.8751H116.193V24.9845C116.193 22.5658 117.065 20.9626 119.006 20.9626H121.754Z" fill="#AEA5BA"/>
<path d="M135.254 17.7001H131.316V25.4626C131.316 27.2626 130.107 28.6126 128.391 28.6126C126.788 28.6126 125.663 27.3751 125.663 25.6595V17.7001H121.754V26.5314C121.754 29.7658 123.835 32.1001 127.013 32.1001C128.954 32.1001 130.529 31.2564 131.316 29.9064V31.8751H135.254V17.7001Z" fill="#AEA5BA"/>
<path d="M136.942 31.8751H140.851V11.5408H136.942V31.8751Z" fill="#AEA5BA"/>
<path d="M152.012 27.0658C151.703 28.2751 150.662 28.8939 149.087 28.8939C147.118 28.8939 145.853 27.6564 145.571 25.6595H155.753C155.781 25.3501 155.809 24.9283 155.809 24.3939C155.809 21.1595 153.812 17.4751 148.806 17.4751C143.996 17.4751 141.803 21.1595 141.803 24.7595C141.803 28.3314 144.278 32.1001 149.087 32.1001C152.575 32.1001 155.275 30.1314 155.837 27.0658H152.012ZM148.806 20.3439C150.69 20.3439 151.787 21.6095 151.9 23.1845H145.628C145.965 21.2158 147.034 20.3439 148.806 20.3439Z" fill="#AEA5BA"/>
</svg>
